<svg xmlns="http://www.w3.org/2000/svg" width="118" height="21" fill="none">
  <path fill="#000" d="M35.212 2.775V15.89h2.155v-5.696h6.089v5.696h2.154V2.775h-2.154v5.508h-6.09V2.775h-2.154Zm13.408-.3c-.694 0-1.237.506-1.237 1.218s.543 1.218 1.237 1.218c.693 0 1.236-.506 1.236-1.218s-.543-1.218-1.236-1.218Zm-1.012 3.822v9.593h2.024V6.297h-2.024Zm8.672 0c-1.574 0-2.342.637-2.829 1.443l-.225-1.443h-1.798v9.593h2.023v-4.815c0-1.48.581-2.886 2.38-2.886h.899V6.297h-.45Zm5.624 9.705c2.923 0 4.89-1.967 4.89-4.908 0-2.923-1.967-4.91-4.89-4.91-2.923 0-4.89 1.987-4.89 4.91 0 2.941 1.967 4.908 4.89 4.908Zm0-1.723c-1.705 0-2.81-1.33-2.81-3.185s1.105-3.186 2.81-3.186 2.83 1.33 2.83 3.186c0 1.854-1.125 3.185-2.83 3.185Zm8.194-11.504L74.07 15.89h1.218L78.68 4.46l3.392 11.43h1.217L87.28 2.775h-1.05L82.689 14.56 79.242 2.775H78.21L74.67 14.56 71.166 2.775h-1.068ZM96.194 15.01c-.524 0-.843-.338-.843-.919V9.67c0-2.174-1.349-3.392-3.728-3.392-2.174 0-3.598 1.05-3.841 2.773h.955c.244-1.161 1.256-1.93 2.848-1.93 1.78 0 2.81.937 2.81 2.511v.824h-3.222c-2.436 0-3.747 1.05-3.747 2.83 0 1.686 1.33 2.716 3.372 2.716 1.93 0 3.092-.899 3.635-2.08v.394c-.037.974.431 1.574 1.555 1.574h.562v-.88h-.356Zm-1.798-2.961c0 1.817-1.293 3.129-3.541 3.129-1.5 0-2.455-.768-2.455-1.949 0-1.255.956-1.948 2.698-1.948h3.298v.768Zm3.244-9.274V15.89h.956V2.775h-.956Zm3.015 0V15.89h.955V2.775h-.955Zm2.696 8.355c0 2.886 1.855 4.872 4.553 4.872 2.079 0 3.634-1.349 4.065-3.26h-.974c-.375 1.48-1.611 2.398-3.166 2.398-2.024 0-3.448-1.536-3.485-3.766 0-.074 0-.15.018-.224h7.738c.019-.132.019-.281.019-.394-.093-2.829-1.836-4.478-4.384-4.478-2.586 0-4.384 1.949-4.384 4.853Zm1.068-.786c.168-1.93 1.592-3.223 3.335-3.223 1.855 0 3.185 1.143 3.335 3.223h-6.67Zm9.928 3.335c0 1.518.618 2.21 2.229 2.21H118v-.88h-1.386c-.956 0-1.312-.374-1.312-1.349V7.271h2.53v-.88h-2.53V3.73h-.955v2.66h-1.799v.88h1.799v6.408Z"/>
  <path fill="#000" fill-rule="evenodd" d="m21.242 20.425 6.945-10.212L21.242 0H6.945v20.425h14.297Zm-14.297 0L0 10.213 6.945 0v20.425ZM19.2 8.348h-3.053l2.144-3.242h-1.62l-2.582 3.91-2.572-3.91h-1.62l2.143 3.242H8.987V9.6H19.2V8.348Zm-3.113 3.687 2.17 3.284h-1.62l-2.548-3.859-2.546 3.86H9.93l2.17-3.277H8.987V10.8H19.2v1.235h-3.113Z" clip-rule="evenodd"/>
</svg>
