<svg width="128" height="128" viewBox="0 0 128 128" fill="none" xmlns="http://www.w3.org/2000/svg">
<rect width="128" height="128" rx="26.8387" fill="#12100F"/>
<path d="M74.9171 52.7114C82.4766 51.5408 93.4087 43.5804 93.4087 37.3761C93.4087 35.5031 91.8968 34.2154 89.6871 34.2154C85.5004 34.2154 78.4061 40.5368 74.9171 52.7114ZM39.911 83.4991C30.0256 83.4991 29.2115 93.3324 39.0969 93.3324C43.5163 93.3324 48.8661 91.5764 51.6573 88.4157C47.5868 84.9038 44.2141 83.4991 39.911 83.4991ZM102.829 79.2848C103.41 95.7907 95.0369 105.039 80.8484 105.039C72.4748 105.039 68.2881 101.878 59.333 96.0249C54.681 101.176 45.8423 105.039 38.5154 105.039C13.2785 105.039 14.3252 72.8463 40.0273 72.8463C45.3771 72.8463 49.9128 74.2511 55.7277 77.88L59.5656 64.4177C43.7489 60.0864 35.8405 47.9118 43.6326 30.4693H56.1929C49.215 42.0586 53.9832 51.6578 62.822 52.7114C67.5903 35.7372 77.8246 22.509 91.4316 22.509C99.1074 22.509 105.155 27.5428 105.155 36.6737C105.155 51.3066 86.0819 63.2471 71.6607 64.4177L65.7295 85.3721C72.4748 93.2153 91.199 100.824 91.199 79.2848H102.829Z" fill="#F5F1ED"/>
</svg>
