<svg width="40" height="40" viewBox="0 0 40 40" fill="none" xmlns="http://www.w3.org/2000/svg">
<rect width="40" height="40" rx="10.2924" fill="#12151E"/>
<path fill-rule="evenodd" clip-rule="evenodd" d="M11.9494 11.101C16.5122 6.96632 23.4881 6.96635 28.0509 11.101L26.9872 12.1647C23.0134 8.61466 16.987 8.61463 13.0131 12.1646L11.9494 11.101ZM28.8994 11.9496L27.8358 13.0133C31.3855 16.9871 31.3855 23.0133 27.8356 26.9871L28.8992 28.0508C33.0338 23.4881 33.0338 16.5124 28.8994 11.9496ZM13.0133 27.8357C16.9871 31.3855 23.0132 31.3855 26.987 27.8356L28.0507 28.8993C23.4879 33.0338 16.5124 33.0338 11.9496 28.8994L13.0133 27.8357ZM12.1647 26.9872L11.101 28.0509C6.96638 23.4881 6.96632 16.5124 11.1008 11.9495L12.1645 13.0132C8.61463 16.9871 8.61469 23.0134 12.1647 26.9872ZM27.4786 14.9896C27.1579 14.5121 26.7864 14.0585 26.3643 13.6364C23.5682 10.8402 19.3899 10.2685 16.0286 11.9214L16.7819 13.2261C19.5664 11.9032 22.9977 12.3941 25.3022 14.6985C25.6293 15.0256 25.9198 15.3754 26.1738 15.7429L27.4786 14.9896ZM26.7745 16.7817L28.0793 16.0284C29.7322 19.3898 29.1606 23.5682 26.3643 26.3644C25.9422 26.7866 25.4885 27.158 25.0108 27.4788L24.2576 26.1741C24.6251 25.92 24.975 25.6294 25.3022 25.3022C27.6067 22.9977 28.0975 19.5662 26.7745 16.7817ZM23.2187 26.7747C20.4342 28.0975 17.0029 27.6066 14.6985 25.3022C14.3712 24.9749 14.0805 24.6249 13.8264 24.2573L12.5217 25.0106C12.8425 25.4883 13.214 25.9421 13.6363 26.3644C16.4325 29.1605 20.6107 29.7322 23.972 28.0794L23.2187 26.7747ZM11.9211 23.9717L13.2258 23.2184C11.9033 20.434 12.3942 17.0029 14.6985 14.6985C15.0257 14.3714 15.3755 14.0808 15.743 13.8267L14.9897 12.522C14.5121 12.8428 14.0585 13.2142 13.6363 13.6364C10.8403 16.4324 10.2685 20.6104 11.9211 23.9717ZM24.2428 15.7574C25.1287 16.6433 25.6797 17.7373 25.8957 18.8821L24.3892 19.0139C24.2093 18.2097 23.8064 17.4454 23.1806 16.8195C22.3556 15.9945 21.2897 15.5569 20.2092 15.507L20.0774 14.0005C21.5871 14.0198 23.0909 14.6054 24.2428 15.7574ZM18.882 14.1045C17.7373 14.3206 16.6433 14.8715 15.7575 15.7574C14.6056 16.9092 14.02 18.4129 14.0006 19.9225L15.5071 19.7907C15.5571 18.7103 15.9946 17.6446 16.8196 16.8195C17.4454 16.1938 18.2097 15.7909 19.0138 15.611L18.882 14.1045ZM14.1046 21.118C14.3206 22.2628 14.8715 23.3568 15.7575 24.2427C16.9093 25.3946 18.413 25.9802 19.9226 25.9996L19.7907 24.4931C18.7104 24.443 17.6446 24.0055 16.8196 23.1805C16.1938 22.5547 15.791 21.7904 15.6111 20.9862L14.1046 21.118ZM24.2428 24.2427C23.3569 25.1286 22.2628 25.6796 21.118 25.8956L20.9862 24.3891C21.7904 24.2092 22.5548 23.8064 23.1806 23.1805C24.0056 22.3555 24.4432 21.2897 24.4932 20.2094L25.9997 20.0776C25.9803 21.5872 25.3947 23.0908 24.2428 24.2427Z" fill="url(#paint0_linear_5056_242368)"/>
<defs>
<linearGradient id="paint0_linear_5056_242368" x1="11.5681" y1="28.5691" x2="32.7669" y2="7.37033" gradientUnits="userSpaceOnUse">
<stop stop-color="#5565F7"/>
<stop offset="1" stop-color="#9EA7FA"/>
</linearGradient>
</defs>
</svg>
